HIERARCHY
ROOT Hips
{
	OFFSET 0.00000 0.00000 0.00000
	CHANNELS 6 Xposition Yposition Zposition Yrotation Zrotation Xrotation 
	JOINT Lumbar
	{
		OFFSET 0 0 0
		CHANNELS 3 Zrotation Xrotation Yrotation
		JOINT Neck
		{
			OFFSET 0.00 0.2701 0.00
			CHANNELS 3 Zrotation Xrotation Yrotation
			End Site
			{
				OFFSET 0.00 0.1379 0.00
			}
		}
		JOINT RightShoulder
		{
			OFFSET 0.0119 0.2289 0.1181
			CHANNELS 3 Zrotation Xrotation Yrotation
			JOINT RightElbow
			{
				OFFSET 0.00 -0.1475 0.00
				CHANNELS 2 Zrotation Yrotation
				JOINT RightWrist
				{
					OFFSET 0.00 -0.1605 0.00
					CHANNELS 2 Zrotation Xrotation
					End Site
					{
						OFFSET 0.0040 -0.1068 0.0006
					}
				}
			}
		}
		JOINT LeftShoulder
		{
			OFFSET 0.0119 0.2289 -0.1181
			CHANNELS 3 Zrotation Xrotation Yrotation
			JOINT LeftElbow
			{
				OFFSET 0.00 -0.1475 0.00
				CHANNELS 2 Zrotation Yrotation
				JOINT LeftWrist
				{
					OFFSET 0.00 -0.1605 0.00
					CHANNELS 2 Zrotation Xrotation
					End Site
					{
						OFFSET 0.0040 -0.1068 -0.0006
					}
				}
			}
		}
	}
	JOINT RightHip
	{
		OFFSET 0.0316 -0.0424 0.0458
		CHANNELS 3 Zrotation Xrotation Yrotation
		JOINT RightKnee
		{
			OFFSET 0.00 -0.2438 0.00
			CHANNELS 1 Zrotation
			JOINT RightAnkle
			{
				OFFSET 0.00 -0.2449 0.00
				CHANNELS 3 Zrotation Xrotation Yrotation
				End Site
				{
					OFFSET 0.1237 -0.0542 0.0051
				}
			}
		}
	}
	JOINT LeftHip
	{
		OFFSET 0.0316 -0.0424 -0.0458
		CHANNELS 3 Zrotation Xrotation Yrotation
		JOINT LeftKnee
		{
			OFFSET 0.00 -0.2438 0.00
			CHANNELS 1 Zrotation
			JOINT LeftAnkle
			{
				OFFSET 0.00 -0.2449 0.00
				CHANNELS 3 Zrotation Xrotation Yrotation
				End Site
				{
					OFFSET 0.1237 -0.0542 -0.0051
				}
			}
		}
	}
}
MOTION
Frames: 11
Frame Time: 0.02
0 2e-05 -0.00022 -181.64172 -39.37496 -3.92231 47.32775 3.37169 -1.00551 -11.3974 -2.73639 -0.14856 33.82336 -106.55512 64.17151 10.42217 84.32619 4.61144 -2.2085 18.18086 106.34117 -64.17068 9.74658 -84.79418 1.96568 1.05155 43.80301 -1.66464 -5.45707 -21.51494 -7.09395 -3.40788 -2.42119 47.63018 6.13195 -1.11141 -26.80304 -7.26105 3.53749 2.49785
-8e-05 1e-05 -0.00013 -181.63465 -39.37231 -3.91948 47.32455 3.37282 -1.01859 -11.40437 -2.72379 -0.14903 34.01358 -106.55617 64.17145 10.41245 84.3254 4.56177 -2.18325 18.3353 106.3261 -64.17071 9.75336 -84.80213 1.96179 1.01545 43.79181 -1.66939 -5.43141 -21.5182 -7.0928 -3.40597 -2.42154 47.61761 6.17962 -0.8679 -26.80459 -7.25112 3.50488 2.47859
-0.00016 -0 -5e-05 -181.62758 -39.36968 -3.91665 47.32137 3.37395 -1.03167 -11.41136 -2.71122 -0.14949 34.20368 -106.55724 64.17138 10.40296 84.32461 4.51186 -2.15803 18.48973 106.31097 -64.17065 9.76019 -84.81009 1.95759 0.97931 43.78065 -1.67412 -5.40579 -21.52144 -7.09165 -3.40406 -2.42189 47.6051 6.22711 -0.6252 -26.80613 -7.24122 3.47237 2.4594
-0.00024 -1e-05 4e-05 -181.62053 -39.36705 -3.91382 47.31818 3.37508 -1.04472 -11.41832 -2.69865 -0.14995 34.39335 -106.55828 64.17132 10.39329 84.32381 4.46229 -2.13285 18.64368 106.29595 -64.17076 9.76694 -84.81799 1.95366 0.94329 43.76949 -1.67885 -5.3802 -21.52469 -7.09051 -3.40215 -2.42224 47.59257 6.27463 -0.38245 -26.80768 -7.23132 3.43985 2.44021
-0.00032 -2e-05 0.00012 -181.61348 -39.36439 -3.91099 47.31496 3.37621 -1.05777 -11.42524 -2.68608 -0.15042 34.58307 -106.55933 64.17125 10.38337 84.32305 4.41307 -2.10766 18.79772 106.28098 -64.17075 9.77365 -84.82596 1.95016 0.90737 43.7583 -1.68359 -5.3546 -21.52794 -7.08936 -3.40023 -2.42259 47.58 6.32232 -0.13887 -26.80922 -7.22139 3.40725 2.42095
-0.0004 -3e-05 0.00021 -181.60639 -39.36183 -3.90817 47.31187 3.37734 -1.07089 -11.43238 -2.6735 -0.15088 34.774 -106.56044 64.17119 10.37483 84.32221 4.3617 -2.08241 18.95309 106.26548 -64.17044 9.78076 -84.83396 1.9445 0.8708 43.74722 -1.68831 -5.32892 -21.53116 -7.08821 -3.39834 -2.42294 47.5676 6.36938 0.10195 -26.81077 -7.21153 3.37492 2.4019
-0.00048 -4e-05 0.00029 -181.59938 -39.35907 -3.90533 47.30853 3.37846 -1.08387 -11.43906 -2.66094 -0.15134 34.96203 -106.56138 64.17114 10.36335 84.32144 4.31482 -2.05727 19.10494 106.25118 -64.17137 9.78696 -84.84164 1.94316 0.83555 43.73591 -1.69307 -5.30342 -21.53445 -7.08707 -3.3964 -2.4233 47.55486 6.41768 0.34806 -26.81232 -7.20155 3.34208 2.38246
-0.00056 -5e-05 0.00037 -181.59231 -39.3565 -3.90251 47.30542 3.3796 -1.09697 -11.4462 -2.64836 -0.1518 35.1532 -106.56253 64.17102 10.35489 84.32075 4.26358 -2.03208 19.26124 106.23559 -64.17003 9.79416 -84.85005 1.9379 0.7991 43.72482 -1.6978 -5.27777 -21.53768 -7.08592 -3.39451 -2.42365 47.54243 6.46482 0.58931 -26.81386 -7.19168 3.30971 2.36337
-0.00063 -6e-05 0.00046 -181.58511 -39.35415 -3.89972 47.30256 3.38073 -1.11026 -11.45376 -2.63575 -0.15226 35.34652 -106.56372 64.17104 10.34893 84.3196 4.20778 -2.0066 19.41836 106.21912 -64.17033 9.80197 -84.85766 1.92754 0.7611 43.71396 -1.70244 -5.25185 -21.54081 -7.08475 -3.39265 -2.42399 47.53038 6.51058 0.82462 -26.81539 -7.18195 3.27787 2.34474
-0.00072 -7e-05 0.00054 -181.57849 -39.35049 -3.89676 47.29821 3.38183 -1.12258 -11.45846 -2.62332 -0.15273 35.5224 -106.56406 64.17095 10.32502 84.31941 4.18052 -1.9821 19.55692 106.20982 -64.17448 9.80442 -84.8648 1.94557 0.73174 43.70168 -1.70744 -5.22722 -21.54444 -7.08369 -3.39053 -2.42437 47.51616 6.5644 1.09413 -26.81697 -7.17143 3.24286 2.32354
-0.00079 -8e-05 0.00063 -181.57074 -39.34962 -3.89413 47.29704 3.38304 -1.13685 -11.46947 -2.61049 -0.15319 35.73824 -106.56659 64.17063 10.34124 84.31829 4.09163 -1.95601 19.74342 106.18406 -64.16202 9.81937 -84.87615 1.90436 0.68436 43.69246 -1.71179 -5.20004 -21.54706 -7.0824 -3.38899 -2.42467 47.50653 6.60116 1.29146 -26.81846 -7.16257 3.2146 2.30775
